<svg width="328" height="120" viewBox="0 0 328 120" fill="none" xmlns="http://www.w3.org/2000/svg">
<path d="M114.935 42.8318C113.634 39.7404 111.473 37.5115 108.684 36.3889L108.647 36.3748C107.377 35.8778 106.026 35.6234 104.662 35.6248H104.513C98.1281 35.7209 91.6102 41.1467 88.2961 49.1272C85.8656 54.9631 85.5867 61.2397 87.5508 65.9178C88.8492 69.0115 91.0148 71.2404 93.8156 72.3631L93.8461 72.3748C95.1156 72.8718 96.4671 73.1262 97.8305 73.1248C104.276 73.1248 110.862 67.699 114.237 59.6131C116.637 53.7842 116.902 47.5123 114.935 42.8318ZM89.4258 77.2522C85.7437 75.0396 82.2633 72.9467 79.9898 69.1873C73.718 58.7811 69.9305 52.4998 60 52.4998C50.0695 52.4998 46.2727 58.7811 39.9867 69.1873C37.7086 72.9514 34.2211 75.0467 30.5273 77.2686C26.2922 79.8139 21.9164 82.4436 20.0273 87.6186C19.2928 89.484 18.9228 91.4731 18.9375 93.4779C18.9375 101.904 25.5 108.759 33.5625 108.759C37.7227 108.759 42.15 107.318 46.8352 105.792C51.3398 104.325 55.9969 102.808 60.0234 102.808C64.05 102.808 68.6953 104.325 73.1836 105.792C77.8594 107.308 82.2656 108.75 86.4375 108.75C94.4883 108.75 101.039 101.894 101.039 93.4686C101.046 91.4622 100.668 89.4733 99.9258 87.6092C98.0367 82.4295 93.6586 79.7975 89.4258 77.2522ZM35.1563 44.2615C37.9453 47.7607 41.4844 49.6873 45.1219 49.6873C45.6185 49.6872 46.1143 49.6504 46.6055 49.5772C54.1922 48.4615 58.9195 39.2037 57.368 28.4834C56.7188 23.9764 54.9844 19.7787 52.5 16.6662C49.7156 13.174 46.1719 11.2498 42.5367 11.2498C42.0402 11.2499 41.5443 11.2867 41.0531 11.36C33.4664 12.4756 28.7391 21.7334 30.2906 32.4537C30.9375 36.9537 32.6719 41.1467 35.1563 44.2615ZM73.3969 49.5772C73.888 49.6504 74.3839 49.6872 74.8805 49.6873C78.5203 49.6873 82.057 47.7607 84.8461 44.2615C87.3281 41.1467 89.0531 36.9537 89.7094 32.449C91.2609 21.7334 86.5336 12.4756 78.9469 11.3553C78.4557 11.2821 77.9599 11.2452 77.4633 11.2451C73.8281 11.2498 70.2844 13.174 67.5 16.6662C65.0156 19.7787 63.2812 23.9764 62.6344 28.4881C61.0828 39.2037 65.8102 48.4615 73.3969 49.5772ZM26.1539 72.3748L26.1867 72.3631C28.9828 71.2404 31.1461 69.0139 32.4422 65.9225C34.4063 61.235 34.1297 54.9654 31.7039 49.1295C28.3453 41.0529 21.7617 35.6248 15.3234 35.6248C13.96 35.6228 12.6084 35.8773 11.3391 36.3748L11.3063 36.3865C8.51719 37.4998 6.35391 39.7357 5.05782 42.8272C3.09375 47.5147 3.37032 53.7842 5.7961 59.6201C9.15469 67.6967 15.7383 73.1248 22.1766 73.1248C23.5376 73.1259 24.8867 72.8715 26.1539 72.3748Z" fill="black"/>
<g clip-path="url(#clip0_8_452)">
<path d="M56.3226 64.156C55.7939 64.156 55.2868 64.366 54.913 64.7399C54.5392 65.1137 54.3292 65.6207 54.3292 66.1494V74.123H46.3556C45.8269 74.123 45.3199 74.333 44.946 74.7068C44.5722 75.0807 44.3622 75.5877 44.3622 76.1164V84.09C44.3622 84.6186 44.5722 85.1257 44.946 85.4995C45.3199 85.8733 45.8269 86.0834 46.3556 86.0834H54.3292V94.0569C54.3292 94.5856 54.5392 95.0926 54.913 95.4665C55.2868 95.8403 55.7939 96.0503 56.3226 96.0503H64.2961C64.8248 96.0503 65.3318 95.8403 65.7057 95.4665C66.0795 95.0926 66.2895 94.5856 66.2895 94.0569V86.0834H74.2631C74.7918 86.0834 75.2988 85.8733 75.6727 85.4995C76.0465 85.1257 76.2565 84.6186 76.2565 84.09V76.1164C76.2565 75.5877 76.0465 75.0807 75.6727 74.7068C75.2988 74.333 74.7918 74.123 74.2631 74.123H66.2895V66.1494C66.2895 65.6207 66.0795 65.1137 65.7057 64.7399C65.3318 64.366 64.8248 64.156 64.2961 64.156H56.3226Z" fill="#FAFFDD"/>
</g>
<path d="M166.52 24.1563C166.52 25.7662 166.151 27.2441 165.412 28.5901C164.673 29.9097 163.538 30.9786 162.007 31.7967C160.477 32.6148 158.576 33.0239 156.307 33.0239H152.111V43H145.341V15.2095H156.307C158.524 15.2095 160.398 15.5922 161.928 16.3575C163.459 17.1229 164.607 18.1786 165.372 19.5245C166.138 20.8705 166.52 22.4144 166.52 24.1563ZM155.792 27.64C157.085 27.64 158.049 27.3365 158.682 26.7295C159.315 26.1225 159.632 25.2647 159.632 24.1563C159.632 23.0478 159.315 22.1901 158.682 21.5831C158.049 20.9761 157.085 20.6726 155.792 20.6726H152.111V27.64H155.792ZM168.699 31.9155C168.699 29.6458 169.121 27.6532 169.965 25.9377C170.836 24.2223 172.011 22.9027 173.489 21.979C174.967 21.0553 176.616 20.5934 178.437 20.5934C179.994 20.5934 181.354 20.9101 182.515 21.5435C183.702 22.1769 184.613 23.0082 185.246 24.0375V20.9101H192.016V43H185.246V39.8726C184.586 40.9019 183.663 41.7332 182.475 42.3666C181.314 43 179.955 43.3167 178.398 43.3167C176.603 43.3167 174.967 42.8548 173.489 41.9311C172.011 40.981 170.836 39.6482 169.965 37.9328C169.121 36.1909 168.699 34.1852 168.699 31.9155ZM185.246 31.9551C185.246 30.266 184.771 28.9332 183.821 27.9567C182.897 26.9802 181.763 26.492 180.417 26.492C179.071 26.492 177.923 26.9802 176.972 27.9567C176.049 28.9068 175.587 30.2264 175.587 31.9155C175.587 33.6045 176.049 34.9505 176.972 35.9534C177.923 36.9299 179.071 37.4181 180.417 37.4181C181.763 37.4181 182.897 36.9299 183.821 35.9534C184.771 34.9769 185.246 33.6441 185.246 31.9551ZM228.623 20.9101L222.645 43H215.163L211.679 28.6693L208.077 43H200.634L194.617 20.9101H201.387L204.514 36.7056L208.235 20.9101H215.401L219.161 36.6264L222.249 20.9101H228.623ZM242.289 26.5315H238.647V43H231.877V26.5315H229.423V20.9101H231.877V20.2767C231.877 17.5584 232.656 15.4998 234.213 14.101C235.77 12.6759 238.053 11.9633 241.062 11.9633C241.563 11.9633 241.933 11.9765 242.17 12.0029V17.7431C240.877 17.6639 239.966 17.8487 239.439 18.2973C238.911 18.746 238.647 19.5509 238.647 20.7122V20.9101H242.289V26.5315ZM266.293 31.5988C266.293 32.2322 266.253 32.892 266.174 33.5781H250.854C250.959 34.9505 251.395 36.0062 252.16 36.7452C252.952 37.4577 253.915 37.814 255.05 37.814C256.739 37.814 257.914 37.1014 258.573 35.6763H265.778C265.409 37.1278 264.736 38.4342 263.759 39.5955C262.809 40.7567 261.608 41.6672 260.157 42.327C258.705 42.9868 257.082 43.3167 255.288 43.3167C253.123 43.3167 251.197 42.8548 249.508 41.9311C247.819 41.0074 246.499 39.6878 245.549 37.9724C244.599 36.2569 244.124 34.2511 244.124 31.9551C244.124 29.659 244.586 27.6532 245.509 25.9377C246.46 24.2223 247.779 22.9027 249.468 21.979C251.157 21.0553 253.097 20.5934 255.288 20.5934C257.425 20.5934 259.326 21.0421 260.988 21.9394C262.651 22.8367 263.944 24.1167 264.868 25.7794C265.818 27.4421 266.293 29.3819 266.293 31.5988ZM259.365 29.8173C259.365 28.6561 258.969 27.7324 258.178 27.0462C257.386 26.36 256.396 26.0169 255.208 26.0169C254.074 26.0169 253.11 26.3468 252.319 27.0066C251.553 27.6664 251.078 28.6033 250.893 29.8173H259.365ZM268.518 31.9551C268.518 29.659 268.98 27.6532 269.904 25.9377C270.854 24.2223 272.16 22.9027 273.823 21.979C275.512 21.0553 277.439 20.5934 279.603 20.5934C282.374 20.5934 284.683 21.3192 286.531 22.7707C288.404 24.2223 289.632 26.2676 290.212 28.9068H283.007C282.4 27.2177 281.226 26.3732 279.484 26.3732C278.244 26.3732 277.254 26.8614 276.515 27.8379C275.776 28.788 275.406 30.1604 275.406 31.9551C275.406 33.7497 275.776 35.1353 276.515 36.1118C277.254 37.0619 278.244 37.5369 279.484 37.5369C281.226 37.5369 282.4 36.6924 283.007 35.0033H290.212C289.632 37.5897 288.404 39.6219 286.531 41.0998C284.657 42.5777 282.348 43.3167 279.603 43.3167C277.439 43.3167 275.512 42.8548 273.823 41.9311C272.16 41.0074 270.854 39.6878 269.904 37.9724C268.98 36.2569 268.518 34.2511 268.518 31.9551ZM306.145 37.2598V43H302.701C300.246 43 298.333 42.4062 296.961 41.2186C295.588 40.0045 294.902 38.0384 294.902 35.32V26.5315H292.21V20.9101H294.902V15.5262H301.672V20.9101H306.105V26.5315H301.672V35.3992C301.672 36.059 301.83 36.534 302.147 36.8243C302.463 37.1146 302.991 37.2598 303.73 37.2598H306.145Z" fill="#2F80ED"/>
<path d="M144.193 69.2712C144.193 66.5265 144.787 64.0852 145.974 61.9475C147.162 59.7834 148.812 58.1075 150.923 56.9199C153.061 55.7058 155.475 55.0988 158.167 55.0988C161.466 55.0988 164.29 55.9698 166.639 57.7116C168.988 59.4535 170.558 61.8287 171.35 64.8374H163.908C163.353 63.6762 162.562 62.792 161.532 62.185C160.529 61.578 159.381 61.2745 158.088 61.2745C156.003 61.2745 154.314 62.0003 153.021 63.4518C151.728 64.9034 151.081 66.8432 151.081 69.2712C151.081 71.6993 151.728 73.639 153.021 75.0906C154.314 76.5421 156.003 77.2679 158.088 77.2679C159.381 77.2679 160.529 76.9644 161.532 76.3574C162.562 75.7504 163.353 74.8663 163.908 73.705H171.35C170.558 76.7137 168.988 79.0889 166.639 80.8308C164.29 82.5463 161.466 83.404 158.167 83.404C155.475 83.404 153.061 82.8102 150.923 81.6225C148.812 80.4085 147.162 78.7327 145.974 76.5949C144.787 74.4572 144.193 72.016 144.193 69.2712ZM174.15 72.1215C174.15 69.8518 174.572 67.8593 175.416 66.1438C176.287 64.4283 177.462 63.1087 178.94 62.185C180.418 61.2613 182.067 60.7995 183.888 60.7995C185.445 60.7995 186.805 61.1162 187.966 61.7496C189.153 62.383 190.064 63.2143 190.697 64.2436V61.1162H197.467V83.2061H190.697V80.0786C190.038 81.1079 189.114 81.9393 187.926 82.5727C186.765 83.2061 185.406 83.5228 183.849 83.5228C182.054 83.5228 180.418 83.0609 178.94 82.1372C177.462 81.1871 176.287 79.8543 175.416 78.1388C174.572 76.397 174.15 74.3912 174.15 72.1215ZM190.697 72.1611C190.697 70.472 190.222 69.1393 189.272 68.1628C188.348 67.1863 187.214 66.698 185.868 66.698C184.522 66.698 183.374 67.1863 182.424 68.1628C181.5 69.1129 181.038 70.4324 181.038 72.1215C181.038 73.8106 181.5 75.1566 182.424 76.1595C183.374 77.136 184.522 77.6242 185.868 77.6242C187.214 77.6242 188.348 77.136 189.272 76.1595C190.222 75.183 190.697 73.8502 190.697 72.1611ZM209.134 64.7978C209.925 63.5838 210.915 62.6337 212.103 61.9475C213.29 61.2349 214.61 60.8786 216.062 60.8786V68.044H214.201C212.512 68.044 211.245 68.4135 210.401 69.1524C209.556 69.865 209.134 71.1318 209.134 72.9529V83.2061H202.364V61.1162H209.134V64.7978ZM240.12 71.8048C240.12 72.4382 240.081 73.098 240.002 73.7842H224.681C224.787 75.1566 225.222 76.2122 225.988 76.9512C226.779 77.6638 227.743 78.0201 228.877 78.0201C230.566 78.0201 231.741 77.3075 232.401 75.8823H239.606C239.236 77.3339 238.563 78.6403 237.587 79.8015C236.637 80.9628 235.436 81.8733 233.984 82.5331C232.533 83.1929 230.91 83.5228 229.115 83.5228C226.951 83.5228 225.024 83.0609 223.335 82.1372C221.646 81.2135 220.326 79.8939 219.376 78.1784C218.426 76.463 217.951 74.4572 217.951 72.1611C217.951 69.865 218.413 67.8593 219.337 66.1438C220.287 64.4283 221.606 63.1087 223.296 62.185C224.985 61.2613 226.924 60.7995 229.115 60.7995C231.253 60.7995 233.153 61.2481 234.816 62.1454C236.478 63.0428 237.771 64.3228 238.695 65.9854C239.645 67.6481 240.12 69.5879 240.12 71.8048ZM233.192 70.0234C233.192 68.8621 232.797 67.9384 232.005 67.2522C231.213 66.5661 230.223 66.223 229.036 66.223C227.901 66.223 226.938 66.5529 226.146 67.2127C225.381 67.8724 224.905 68.8094 224.721 70.0234H233.192Z" fill="#0A0A0A"/>
<path d="M148.261 103.853C148.261 104.427 148.063 104.905 147.667 105.288C147.278 105.664 146.68 105.852 145.875 105.852H144.549V108.732H143.649V101.834H145.875C146.654 101.834 147.245 102.022 147.647 102.398C148.056 102.774 148.261 103.259 148.261 103.853ZM145.875 105.109C146.377 105.109 146.746 105.001 146.984 104.783C147.221 104.565 147.34 104.255 147.34 103.853C147.34 103.001 146.852 102.576 145.875 102.576H144.549V105.109H145.875ZM154.328 105.812C154.328 105.984 154.319 106.165 154.299 106.356H149.964C149.997 106.891 150.178 107.31 150.508 107.613C150.845 107.91 151.25 108.059 151.726 108.059C152.115 108.059 152.438 107.97 152.695 107.791C152.959 107.607 153.144 107.363 153.25 107.059H154.22C154.074 107.58 153.784 108.006 153.349 108.336C152.913 108.659 152.372 108.821 151.726 108.821C151.211 108.821 150.749 108.705 150.34 108.474C149.937 108.243 149.621 107.917 149.39 107.495C149.159 107.066 149.043 106.571 149.043 106.01C149.043 105.449 149.156 104.958 149.38 104.535C149.604 104.113 149.918 103.79 150.32 103.566C150.729 103.335 151.198 103.219 151.726 103.219C152.24 103.219 152.695 103.331 153.091 103.556C153.487 103.78 153.791 104.09 154.002 104.486C154.22 104.875 154.328 105.317 154.328 105.812ZM153.398 105.624C153.398 105.281 153.322 104.987 153.17 104.743C153.019 104.493 152.811 104.304 152.547 104.179C152.29 104.047 152.003 103.981 151.686 103.981C151.231 103.981 150.841 104.126 150.518 104.417C150.201 104.707 150.02 105.109 149.974 105.624H153.398ZM156.616 104.05V107.247C156.616 107.511 156.672 107.699 156.784 107.811C156.896 107.917 157.091 107.97 157.368 107.97H158.031V108.732H157.219C156.718 108.732 156.342 108.616 156.091 108.385C155.841 108.154 155.715 107.775 155.715 107.247V104.05H155.012V103.308H155.715V101.942H156.616V103.308H158.031V104.05H156.616ZM167.075 101.834V108.732H166.175V105.604H162.661V108.732H161.761V101.834H162.661V104.862H166.175V101.834H167.075ZM173.562 105.812C173.562 105.984 173.552 106.165 173.532 106.356H169.197C169.23 106.891 169.412 107.31 169.741 107.613C170.078 107.91 170.484 108.059 170.959 108.059C171.348 108.059 171.671 107.97 171.929 107.791C172.193 107.607 172.377 107.363 172.483 107.059H173.453C173.308 107.58 173.017 108.006 172.582 108.336C172.146 108.659 171.605 108.821 170.959 108.821C170.444 108.821 169.982 108.705 169.573 108.474C169.171 108.243 168.854 107.917 168.623 107.495C168.392 107.066 168.277 106.571 168.277 106.01C168.277 105.449 168.389 104.958 168.613 104.535C168.838 104.113 169.151 103.79 169.553 103.566C169.962 103.335 170.431 103.219 170.959 103.219C171.473 103.219 171.929 103.331 172.325 103.556C172.72 103.78 173.024 104.09 173.235 104.486C173.453 104.875 173.562 105.317 173.562 105.812ZM172.631 105.624C172.631 105.281 172.555 104.987 172.404 104.743C172.252 104.493 172.044 104.304 171.78 104.179C171.523 104.047 171.236 103.981 170.919 103.981C170.464 103.981 170.075 104.126 169.751 104.417C169.435 104.707 169.253 105.109 169.207 105.624H172.631ZM174.414 106C174.414 105.446 174.526 104.961 174.75 104.545C174.975 104.123 175.282 103.796 175.671 103.566C176.067 103.335 176.506 103.219 176.987 103.219C177.462 103.219 177.875 103.321 178.224 103.526C178.574 103.73 178.835 103.988 179.006 104.298V103.308H179.917V108.732H179.006V107.722C178.828 108.039 178.561 108.303 178.204 108.514C177.855 108.718 177.446 108.821 176.977 108.821C176.496 108.821 176.06 108.702 175.671 108.464C175.282 108.227 174.975 107.894 174.75 107.465C174.526 107.036 174.414 106.548 174.414 106ZM179.006 106.01C179.006 105.601 178.924 105.245 178.759 104.941C178.594 104.638 178.369 104.407 178.086 104.248C177.809 104.083 177.502 104.001 177.165 104.001C176.829 104.001 176.522 104.08 176.245 104.238C175.968 104.397 175.747 104.628 175.582 104.931C175.417 105.235 175.334 105.591 175.334 106C175.334 106.416 175.417 106.779 175.582 107.089C175.747 107.392 175.968 107.627 176.245 107.791C176.522 107.95 176.829 108.029 177.165 108.029C177.502 108.029 177.809 107.95 178.086 107.791C178.369 107.627 178.594 107.392 178.759 107.089C178.924 106.779 179.006 106.419 179.006 106.01ZM182.339 101.408V108.732H181.439V101.408H182.339ZM184.973 104.05V107.247C184.973 107.511 185.029 107.699 185.141 107.811C185.253 107.917 185.448 107.97 185.725 107.97H186.388V108.732H185.576C185.075 108.732 184.699 108.616 184.448 108.385C184.197 108.154 184.072 107.775 184.072 107.247V104.05H183.369V103.308H184.072V101.942H184.973V103.308H186.388V104.05H184.973ZM190.171 103.209C190.58 103.209 190.95 103.298 191.28 103.476C191.61 103.648 191.867 103.909 192.052 104.258C192.243 104.608 192.339 105.034 192.339 105.535V108.732H191.448V105.664C191.448 105.123 191.313 104.71 191.042 104.427C190.772 104.136 190.402 103.991 189.934 103.991C189.459 103.991 189.079 104.14 188.795 104.436C188.518 104.733 188.38 105.166 188.38 105.733V108.732H187.479V101.408H188.38V104.08C188.558 103.803 188.802 103.589 189.112 103.437C189.429 103.285 189.782 103.209 190.171 103.209ZM197.715 106.643C197.379 106.643 197.092 106.528 196.854 106.297C196.623 106.06 196.508 105.773 196.508 105.436C196.508 105.093 196.623 104.806 196.854 104.575C197.092 104.337 197.379 104.219 197.715 104.219C198.058 104.219 198.348 104.337 198.586 104.575C198.824 104.806 198.942 105.093 198.942 105.436C198.942 105.773 198.824 106.06 198.586 106.297C198.348 106.528 198.058 106.643 197.715 106.643ZM207.243 107.198H204.234L203.68 108.732H202.73L205.224 101.873H206.263L208.747 108.732H207.797L207.243 107.198ZM206.986 106.465L205.739 102.982L204.492 106.465H206.986ZM210.735 104.308C210.913 103.998 211.177 103.74 211.527 103.536C211.883 103.325 212.295 103.219 212.764 103.219C213.245 103.219 213.681 103.335 214.07 103.566C214.466 103.796 214.776 104.123 215 104.545C215.225 104.961 215.337 105.446 215.337 106C215.337 106.548 215.225 107.036 215 107.465C214.776 107.894 214.466 108.227 214.07 108.464C213.681 108.702 213.245 108.821 212.764 108.821C212.302 108.821 211.893 108.718 211.536 108.514C211.187 108.303 210.92 108.042 210.735 107.732V111.305H209.834V103.308H210.735V104.308ZM214.416 106C214.416 105.591 214.334 105.235 214.169 104.931C214.004 104.628 213.78 104.397 213.496 104.238C213.219 104.08 212.912 104.001 212.576 104.001C212.246 104.001 211.939 104.083 211.655 104.248C211.378 104.407 211.154 104.641 210.982 104.951C210.817 105.255 210.735 105.608 210.735 106.01C210.735 106.419 210.817 106.779 210.982 107.089C211.154 107.392 211.378 107.627 211.655 107.791C211.939 107.95 212.246 108.029 212.576 108.029C212.912 108.029 213.219 107.95 213.496 107.791C213.78 107.627 214.004 107.392 214.169 107.089C214.334 106.779 214.416 106.416 214.416 106ZM217.423 104.308C217.601 103.998 217.865 103.74 218.215 103.536C218.571 103.325 218.983 103.219 219.452 103.219C219.934 103.219 220.369 103.335 220.758 103.566C221.154 103.796 221.464 104.123 221.689 104.545C221.913 104.961 222.025 105.446 222.025 106C222.025 106.548 221.913 107.036 221.689 107.465C221.464 107.894 221.154 108.227 220.758 108.464C220.369 108.702 219.934 108.821 219.452 108.821C218.99 108.821 218.581 108.718 218.225 108.514C217.875 108.303 217.608 108.042 217.423 107.732V111.305H216.522V103.308H217.423V104.308ZM221.105 106C221.105 105.591 221.022 105.235 220.857 104.931C220.692 104.628 220.468 104.397 220.184 104.238C219.907 104.08 219.6 104.001 219.264 104.001C218.934 104.001 218.627 104.083 218.343 104.248C218.066 104.407 217.842 104.641 217.67 104.951C217.505 105.255 217.423 105.608 217.423 106.01C217.423 106.419 217.505 106.779 217.67 107.089C217.842 107.392 218.066 107.627 218.343 107.791C218.627 107.95 218.934 108.029 219.264 108.029C219.6 108.029 219.907 107.95 220.184 107.791C220.468 107.627 220.692 107.392 220.857 107.089C221.022 106.779 221.105 106.416 221.105 106ZM225.576 108.821C225.068 108.821 224.606 108.705 224.19 108.474C223.781 108.243 223.458 107.917 223.22 107.495C222.989 107.066 222.874 106.571 222.874 106.01C222.874 105.456 222.993 104.968 223.23 104.545C223.474 104.116 223.804 103.79 224.22 103.566C224.636 103.335 225.101 103.219 225.615 103.219C226.13 103.219 226.595 103.335 227.011 103.566C227.427 103.79 227.753 104.113 227.991 104.535C228.235 104.958 228.357 105.449 228.357 106.01C228.357 106.571 228.232 107.066 227.981 107.495C227.737 107.917 227.403 108.243 226.981 108.474C226.559 108.705 226.091 108.821 225.576 108.821ZM225.576 108.029C225.899 108.029 226.203 107.953 226.486 107.801C226.77 107.65 226.998 107.422 227.169 107.118C227.347 106.815 227.436 106.446 227.436 106.01C227.436 105.575 227.351 105.205 227.179 104.902C227.008 104.598 226.783 104.374 226.506 104.229C226.229 104.077 225.929 104.001 225.606 104.001C225.276 104.001 224.972 104.077 224.695 104.229C224.425 104.374 224.207 104.598 224.042 104.902C223.877 105.205 223.794 105.575 223.794 106.01C223.794 106.452 223.874 106.825 224.032 107.128C224.197 107.432 224.415 107.66 224.685 107.811C224.956 107.956 225.253 108.029 225.576 108.029ZM230.006 102.427C229.835 102.427 229.69 102.368 229.571 102.249C229.452 102.13 229.393 101.985 229.393 101.814C229.393 101.642 229.452 101.497 229.571 101.378C229.69 101.26 229.835 101.2 230.006 101.2C230.171 101.2 230.31 101.26 230.422 101.378C230.541 101.497 230.6 101.642 230.6 101.814C230.6 101.985 230.541 102.13 230.422 102.249C230.31 102.368 230.171 102.427 230.006 102.427ZM230.442 103.308V108.732H229.541V103.308H230.442ZM234.619 103.209C235.279 103.209 235.813 103.41 236.222 103.813C236.631 104.209 236.836 104.783 236.836 105.535V108.732H235.945V105.664C235.945 105.123 235.81 104.71 235.54 104.427C235.269 104.136 234.9 103.991 234.431 103.991C233.956 103.991 233.577 104.14 233.293 104.436C233.016 104.733 232.877 105.166 232.877 105.733V108.732H231.977V103.308H232.877V104.08C233.055 103.803 233.296 103.589 233.6 103.437C233.91 103.285 234.25 103.209 234.619 103.209ZM239.406 104.05V107.247C239.406 107.511 239.462 107.699 239.574 107.811C239.686 107.917 239.881 107.97 240.158 107.97H240.821V108.732H240.009C239.508 108.732 239.132 108.616 238.881 108.385C238.63 108.154 238.505 107.775 238.505 107.247V104.05H237.802V103.308H238.505V101.942H239.406V103.308H240.821V104.05H239.406ZM248.434 103.209C248.857 103.209 249.233 103.298 249.562 103.476C249.892 103.648 250.153 103.909 250.344 104.258C250.536 104.608 250.631 105.034 250.631 105.535V108.732H249.741V105.664C249.741 105.123 249.605 104.71 249.335 104.427C249.071 104.136 248.711 103.991 248.256 103.991C247.788 103.991 247.415 104.143 247.138 104.446C246.861 104.743 246.722 105.175 246.722 105.743V108.732H245.831V105.664C245.831 105.123 245.696 104.71 245.426 104.427C245.162 104.136 244.802 103.991 244.347 103.991C243.878 103.991 243.506 104.143 243.228 104.446C242.951 104.743 242.813 105.175 242.813 105.743V108.732H241.912V103.308H242.813V104.09C242.991 103.806 243.228 103.589 243.525 103.437C243.829 103.285 244.162 103.209 244.525 103.209C244.98 103.209 245.383 103.311 245.732 103.516C246.082 103.721 246.343 104.021 246.514 104.417C246.666 104.034 246.917 103.737 247.266 103.526C247.616 103.315 248.005 103.209 248.434 103.209ZM257.057 105.812C257.057 105.984 257.047 106.165 257.027 106.356H252.693C252.726 106.891 252.907 107.31 253.237 107.613C253.573 107.91 253.979 108.059 254.454 108.059C254.844 108.059 255.167 107.97 255.424 107.791C255.688 107.607 255.873 107.363 255.978 107.059H256.948C256.803 107.58 256.513 108.006 256.077 108.336C255.642 108.659 255.101 108.821 254.454 108.821C253.94 108.821 253.478 108.705 253.069 108.474C252.666 108.243 252.35 107.917 252.119 107.495C251.888 107.066 251.772 106.571 251.772 106.01C251.772 105.449 251.884 104.958 252.109 104.535C252.333 104.113 252.646 103.79 253.049 103.566C253.458 103.335 253.926 103.219 254.454 103.219C254.969 103.219 255.424 103.331 255.82 103.556C256.216 103.78 256.519 104.09 256.731 104.486C256.948 104.875 257.057 105.317 257.057 105.812ZM256.127 105.624C256.127 105.281 256.051 104.987 255.899 104.743C255.747 104.493 255.54 104.304 255.276 104.179C255.018 104.047 254.731 103.981 254.415 103.981C253.959 103.981 253.57 104.126 253.247 104.417C252.93 104.707 252.749 105.109 252.703 105.624H256.127ZM260.888 103.209C261.548 103.209 262.083 103.41 262.492 103.813C262.901 104.209 263.105 104.783 263.105 105.535V108.732H262.215V105.664C262.215 105.123 262.079 104.71 261.809 104.427C261.538 104.136 261.169 103.991 260.7 103.991C260.225 103.991 259.846 104.14 259.562 104.436C259.285 104.733 259.147 105.166 259.147 105.733V108.732H258.246V103.308H259.147V104.08C259.325 103.803 259.566 103.589 259.869 103.437C260.179 103.285 260.519 103.209 260.888 103.209ZM265.675 104.05V107.247C265.675 107.511 265.731 107.699 265.843 107.811C265.955 107.917 266.15 107.97 266.427 107.97H267.09V108.732H266.279C265.777 108.732 265.401 108.616 265.151 108.385C264.9 108.154 264.774 107.775 264.774 107.247V104.05H264.072V103.308H264.774V101.942H265.675V103.308H267.09V104.05H265.675ZM270.102 108.821C269.686 108.821 269.313 108.751 268.983 108.613C268.653 108.468 268.393 108.27 268.201 108.019C268.01 107.762 267.904 107.468 267.885 107.138H268.815C268.841 107.409 268.967 107.63 269.191 107.801C269.422 107.973 269.722 108.059 270.092 108.059C270.435 108.059 270.705 107.983 270.903 107.831C271.101 107.679 271.2 107.488 271.2 107.257C271.2 107.02 271.095 106.845 270.883 106.733C270.672 106.614 270.346 106.498 269.904 106.386C269.501 106.281 269.171 106.175 268.914 106.069C268.663 105.957 268.445 105.796 268.261 105.584C268.083 105.367 267.993 105.083 267.993 104.733C267.993 104.456 268.076 104.202 268.241 103.971C268.406 103.74 268.64 103.559 268.944 103.427C269.247 103.288 269.593 103.219 269.983 103.219C270.583 103.219 271.068 103.371 271.438 103.674C271.807 103.978 272.005 104.394 272.031 104.921H271.131C271.111 104.638 270.996 104.41 270.784 104.238C270.58 104.067 270.303 103.981 269.953 103.981C269.63 103.981 269.372 104.05 269.181 104.189C268.99 104.328 268.894 104.509 268.894 104.733C268.894 104.911 268.95 105.06 269.062 105.179C269.181 105.291 269.326 105.383 269.498 105.456C269.676 105.522 269.92 105.598 270.23 105.683C270.619 105.789 270.936 105.895 271.18 106C271.424 106.099 271.632 106.251 271.804 106.455C271.982 106.66 272.074 106.927 272.081 107.257C272.081 107.554 271.998 107.821 271.833 108.059C271.669 108.296 271.434 108.484 271.131 108.623C270.834 108.755 270.491 108.821 270.102 108.821ZM277.258 106.643C276.921 106.643 276.634 106.528 276.397 106.297C276.166 106.06 276.05 105.773 276.05 105.436C276.05 105.093 276.166 104.806 276.397 104.575C276.634 104.337 276.921 104.219 277.258 104.219C277.601 104.219 277.891 104.337 278.129 104.575C278.366 104.806 278.485 105.093 278.485 105.436C278.485 105.773 278.366 106.06 278.129 106.297C277.891 106.528 277.601 106.643 277.258 106.643ZM286.785 107.198H283.777L283.223 108.732H282.272L284.766 101.873H285.806L288.29 108.732H287.34L286.785 107.198ZM286.528 106.465L285.281 102.982L284.034 106.465H286.528ZM289.04 106C289.04 105.446 289.152 104.961 289.377 104.545C289.601 104.123 289.908 103.796 290.297 103.566C290.693 103.335 291.135 103.219 291.623 103.219C292.046 103.219 292.438 103.318 292.801 103.516C293.164 103.707 293.441 103.961 293.632 104.278V101.408H294.543V108.732H293.632V107.712C293.454 108.036 293.19 108.303 292.841 108.514C292.491 108.718 292.082 108.821 291.613 108.821C291.132 108.821 290.693 108.702 290.297 108.464C289.908 108.227 289.601 107.894 289.377 107.465C289.152 107.036 289.04 106.548 289.04 106ZM293.632 106.01C293.632 105.601 293.55 105.245 293.385 104.941C293.22 104.638 292.996 104.407 292.712 104.248C292.435 104.083 292.128 104.001 291.792 104.001C291.455 104.001 291.148 104.08 290.871 104.238C290.594 104.397 290.373 104.628 290.208 104.931C290.043 105.235 289.961 105.591 289.961 106C289.961 106.416 290.043 106.779 290.208 107.089C290.373 107.392 290.594 107.627 290.871 107.791C291.148 107.95 291.455 108.029 291.792 108.029C292.128 108.029 292.435 107.95 292.712 107.791C292.996 107.627 293.22 107.392 293.385 107.089C293.55 106.779 293.632 106.419 293.632 106.01ZM298.43 108.821C297.922 108.821 297.46 108.705 297.045 108.474C296.636 108.243 296.312 107.917 296.075 107.495C295.844 107.066 295.728 106.571 295.728 106.01C295.728 105.456 295.847 104.968 296.085 104.545C296.329 104.116 296.659 103.79 297.074 103.566C297.49 103.335 297.955 103.219 298.47 103.219C298.984 103.219 299.45 103.335 299.865 103.566C300.281 103.79 300.608 104.113 300.845 104.535C301.089 104.958 301.211 105.449 301.211 106.01C301.211 106.571 301.086 107.066 300.835 107.495C300.591 107.917 300.258 108.243 299.836 108.474C299.413 108.705 298.945 108.821 298.43 108.821ZM298.43 108.029C298.754 108.029 299.057 107.953 299.341 107.801C299.624 107.65 299.852 107.422 300.024 107.118C300.202 106.815 300.291 106.446 300.291 106.01C300.291 105.575 300.205 105.205 300.034 104.902C299.862 104.598 299.638 104.374 299.361 104.229C299.083 104.077 298.783 104.001 298.46 104.001C298.13 104.001 297.827 104.077 297.549 104.229C297.279 104.374 297.061 104.598 296.896 104.902C296.731 105.205 296.649 105.575 296.649 106.01C296.649 106.452 296.728 106.825 296.886 107.128C297.051 107.432 297.269 107.66 297.54 107.811C297.81 107.956 298.107 108.029 298.43 108.029ZM303.296 104.308C303.474 103.998 303.738 103.74 304.088 103.536C304.444 103.325 304.856 103.219 305.325 103.219C305.807 103.219 306.242 103.335 306.631 103.566C307.027 103.796 307.337 104.123 307.562 104.545C307.786 104.961 307.898 105.446 307.898 106C307.898 106.548 307.786 107.036 307.562 107.465C307.337 107.894 307.027 108.227 306.631 108.464C306.242 108.702 305.807 108.821 305.325 108.821C304.863 108.821 304.454 108.718 304.098 108.514C303.748 108.303 303.481 108.042 303.296 107.732V111.305H302.395V103.308H303.296V104.308ZM306.978 106C306.978 105.591 306.895 105.235 306.73 104.931C306.565 104.628 306.341 104.397 306.057 104.238C305.78 104.08 305.473 104.001 305.137 104.001C304.807 104.001 304.5 104.083 304.216 104.248C303.939 104.407 303.715 104.641 303.543 104.951C303.379 105.255 303.296 105.608 303.296 106.01C303.296 106.419 303.379 106.779 303.543 107.089C303.715 107.392 303.939 107.627 304.216 107.791C304.5 107.95 304.807 108.029 305.137 108.029C305.473 108.029 305.78 107.95 306.057 107.791C306.341 107.627 306.565 107.392 306.73 107.089C306.895 106.779 306.978 106.416 306.978 106ZM310.182 104.05V107.247C310.182 107.511 310.238 107.699 310.35 107.811C310.463 107.917 310.657 107.97 310.934 107.97H311.597V108.732H310.786C310.284 108.732 309.908 108.616 309.658 108.385C309.407 108.154 309.282 107.775 309.282 107.247V104.05H308.579V103.308H309.282V101.942H310.182V103.308H311.597V104.05H310.182ZM313.154 102.427C312.982 102.427 312.837 102.368 312.718 102.249C312.6 102.13 312.54 101.985 312.54 101.814C312.54 101.642 312.6 101.497 312.718 101.378C312.837 101.26 312.982 101.2 313.154 101.2C313.319 101.2 313.457 101.26 313.569 101.378C313.688 101.497 313.748 101.642 313.748 101.814C313.748 101.985 313.688 102.13 313.569 102.249C313.457 102.368 313.319 102.427 313.154 102.427ZM313.589 103.308V108.732H312.689V103.308H313.589ZM317.49 108.821C316.981 108.821 316.52 108.705 316.104 108.474C315.695 108.243 315.372 107.917 315.134 107.495C314.903 107.066 314.788 106.571 314.788 106.01C314.788 105.456 314.906 104.968 315.144 104.545C315.388 104.116 315.718 103.79 316.134 103.566C316.549 103.335 317.014 103.219 317.529 103.219C318.044 103.219 318.509 103.335 318.925 103.566C319.34 103.79 319.667 104.113 319.904 104.535C320.148 104.958 320.271 105.449 320.271 106.01C320.271 106.571 320.145 107.066 319.894 107.495C319.65 107.917 319.317 108.243 318.895 108.474C318.473 108.705 318.004 108.821 317.49 108.821ZM317.49 108.029C317.813 108.029 318.116 107.953 318.4 107.801C318.684 107.65 318.911 107.422 319.083 107.118C319.261 106.815 319.35 106.446 319.35 106.01C319.35 105.575 319.264 105.205 319.093 104.902C318.921 104.598 318.697 104.374 318.42 104.229C318.143 104.077 317.843 104.001 317.519 104.001C317.189 104.001 316.886 104.077 316.609 104.229C316.338 104.374 316.12 104.598 315.956 104.902C315.791 105.205 315.708 105.575 315.708 106.01C315.708 106.452 315.787 106.825 315.946 107.128C316.111 107.432 316.328 107.66 316.599 107.811C316.869 107.956 317.166 108.029 317.49 108.029ZM324.097 103.209C324.757 103.209 325.291 103.41 325.7 103.813C326.11 104.209 326.314 104.783 326.314 105.535V108.732H325.423V105.664C325.423 105.123 325.288 104.71 325.018 104.427C324.747 104.136 324.378 103.991 323.909 103.991C323.434 103.991 323.055 104.14 322.771 104.436C322.494 104.733 322.355 105.166 322.355 105.733V108.732H321.455V103.308H322.355V104.08C322.533 103.803 322.774 103.589 323.078 103.437C323.388 103.285 323.728 103.209 324.097 103.209Z" fill="#2F80ED"/>
<path fill-rule="evenodd" clip-rule="evenodd" d="M275.076 53.5965C274.899 53.2903 274.646 53.0354 274.341 52.8567C274.036 52.678 273.69 52.5817 273.337 52.5773C272.983 52.5729 272.635 52.6606 272.326 52.8317C272.016 53.0027 271.757 53.2514 271.573 53.5531L260.874 71.0193L257.134 65.371C256.949 65.0903 256.696 64.86 256.399 64.7007C256.103 64.5415 255.771 64.4583 255.435 64.4586H251.315C250.775 64.4586 250.257 64.6732 249.875 65.0551C249.493 65.437 249.279 65.9551 249.279 66.4952C249.279 67.0354 249.493 67.5534 249.875 67.9353C250.257 68.3173 250.775 68.5319 251.315 68.5319H254.343L259.239 75.9344C259.428 76.22 259.686 76.4534 259.989 76.6129C260.292 76.7724 260.631 76.8529 260.973 76.8469C261.315 76.841 261.651 76.7487 261.948 76.5788C262.246 76.4088 262.495 76.1666 262.674 75.8746L273.262 58.5931L277.047 65.1375C277.318 65.6052 277.763 65.9464 278.285 66.086C278.807 66.2255 279.363 66.152 279.831 65.8815C280.299 65.6111 280.64 65.1659 280.779 64.6439C280.919 64.1219 280.845 63.5659 280.575 63.0981L275.073 53.5938L275.076 53.5965ZM277.297 72.5101C276.064 71.4239 274.753 70.8319 273.436 70.726C272.658 70.6664 271.876 70.777 271.145 71.0499C270.414 71.3228 269.751 71.7516 269.202 72.3064C267.138 74.3376 266.454 78.0905 269.088 80.7137L269.134 80.7544L276.363 87.3259C276.613 87.5534 276.939 87.6794 277.277 87.6794C277.615 87.6794 277.941 87.5534 278.191 87.3259L285.419 80.7544L285.446 80.7272C288.102 78.1719 287.445 74.4354 285.403 72.4042C284.857 71.8494 284.198 71.4185 283.471 71.1407C282.744 70.8629 281.965 70.7446 281.189 70.7939C279.871 70.8835 278.549 71.4483 277.297 72.5101Z" fill="#2F80ED"/>
<defs>
<clipPath id="clip0_8_452">
<rect width="38.0172" height="38.0172" fill="white" transform="translate(41.3374 63.3494)"/>
</clipPath>
</defs>
</svg>
